# xmcd CD database file
#
# Track frame offsets:
#	150
#	27715
#	37987
#	57961
#	102497
#	129895
#	144437
#	172592
#	210815
#
# Disc length: 2938 seconds
#
# Revision: 1
# Processed by: cddbd v1.5.2PL0 Copyright (c) Steve Scherf et al.
# Submitted via: CDex 1.82
#
DISCID=6d0b7809
DTITLE=Bror Gunnar Jansson - And The Great Unknown - Part II
DYEAR=2017
DGENRE=Blues
TTITLE0=Edward Young Took His Gun
TTITLE1=He Had A Knife In His Hand, Part II
TTITLE2=The Lonesome Shack
TTITLE3=The Preacher
TTITLE4=While I Fight The Tears
TTITLE5=Moan Snake Moan, Part III "The Bear-Snake"
TTITLE6=I Ain't Going Down That Road No More
TTITLE7=O' Death
TTITLE8=Bonus Track
EXTD=YEAR: 2017
EXTT0=
EXTT1=
EXTT2=
EXTT3=
EXTT4=
EXTT5=
EXTT6=
EXTT7=
EXTT8=
PLAYORDER=
